Patient4_TMGait_0pt3_01_left_15_GRF.mot
version=1
nRows=77
nColumns=19
inDegrees=no
endheader
time	F1x	F1y	F1z	M1x	M1y	M1z	F2x	F2y	F2z	M2x	M2y	M2z	EC1x	EC1y	EC1z	EC2x	EC2y	EC2z
27.81	-8.1218	-0.45681	-2.5211	0.12256	1.3947	0.82771	-29.4385	732.4108	-55.2526	244.3325	66.7919	741.717	-0.0592	0.0182	-0.0073	-0.0462	0.0165	0.9585
27.8284	-5.5978	-0.1854	-1.5568	0.033463	0.70795	0.6036	-28.7995	746.9785	-55.6527	248.9177	67.0407	753.8047	-0.0592	0.0182	-0.0073	-0.0462	0.0165	0.9585
27.8467	-3.4606	0.057805	-0.75702	-0.045223	0.14837	0.44685	-28.0278	765.0255	-55.744	254.7444	66.8861	768.7809	-0.0592	0.0182	-0.0073	-0.0462	0.0165	0.9585
27.8651	-1.8326	0.25759	-0.16149	-0.10945	-0.26019	0.36206	-27.12	785.6549	-55.4603	261.5273	66.2494	785.8084	-0.0592	0.0182	-0.0073	-0.0462	0.0165	0.9585
27.8834	-0.71184	0.41027	0.23903	-0.15857	-0.5279	0.33891	-26.1255	807.3837	-54.8434	268.7389	65.1817	803.5091	-0.0592	0.0182	-0.0073	-0.0462	0.0165	0.9585
27.9018	-0.027372	0.51653	0.47957	-0.1931	-0.68231	0.36031	-25.1013	828.325	-54.0061	275.6865	63.81	820.1278	-0.0592	0.0182	-0.0073	-0.0462	0.0165	0.9585
27.9201	0.3213	0.57482	0.60269	-0.21168	-0.75856	0.3982	-24.0372	846.4892	-53.0615	281.6429	62.2427	833.7939	-0.0592	0.0182	-0.0073	-0.0462	0.0165	0.9585
27.9385	0.43323	0.57449	0.65051	-0.20853	-0.79078	0.41215	-22.8164	860.1015	-52.0716	285.9814	60.5073	842.8077	-0.0592	0.0182	-0.0073	-0.0462	0.0165	0.9585
27.9569	0.39032	0.49156	0.657	-0.17233	-0.80659	0.35459	-21.26	867.8535	-51.0363	288.2714	58.5537	845.901	-0.0592	0.0182	-0.0073	-0.0462	0.0165	0.9585
27.9752	0.25216	0.2857	0.6447	-0.086282	-0.824	0.17097	-19.2041	869.0354	-49.9236	288.3131	56.31	842.3949	-0.0592	0.0182	-0.0073	-0.0462	0.0165	0.9585
27.9936	0.062181	-0.090452	0.62814	0.067905	-0.85285	-0.19552	-16.535	863.5759	-48.6976	286.138	53.723	832.2481	-0.0592	0.0182	-0.0073	-0.0462	0.0165	0.9585
28.0119	-0.14651	-0.6793	0.61513	0.30737	-0.8937	-0.7946	-13.1906	852.0269	-47.3304	281.9885	50.766	816.0438	-0.0592	0.0182	-0.0073	-0.0462	0.0165	0.9585
28.0303	-0.34206	-1.5087	0.6011	0.6443	-0.93307	-1.6564	-9.168	835.4582	-45.8219	276.2681	47.45	794.8898	-0.0592	0.0182	-0.0073	-0.0462	0.0165	0.9585
28.0486	-0.48942	-2.5697	0.56605	1.0762	-0.93865	-2.7784	-4.5295	815.2778	-44.2215	269.47	43.8476	770.2345	-0.0592	0.0182	-0.0073	-0.0462	0.0165	0.9585
28.067	-0.54335	-3.7872	0.48292	1.5727	-0.86154	-4.0814	0.59903	793.0444	-42.6403	262.1118	40.1047	743.6754	-0.0592	0.0182	-0.0073	-0.0462	0.0165	0.9585
28.0854	-0.44515	-4.9844	0.32297	2.0592	-0.64171	-5.374	6.0319	770.3699	-41.2221	254.7122	36.415	716.8476	-0.0592	0.0182	-0.0073	-0.0462	0.0165	0.9585
28.1037	-0.11982	-5.8392	0.056067	2.3992	-0.21084	-6.3137	11.5649	748.8813	-40.093	247.7904	32.963	691.3631	-0.0592	0.0182	-0.0073	-0.0462	0.0165	0.9585
28.1221	0.52182	-5.8399	-0.34111	2.3763	0.49574	-6.3544	16.9959	730.1088	-39.3278	241.8385	29.8909	668.7035	-0.0592	0.0182	-0.0073	-0.0462	0.0165	0.9585
28.1404	1.5692	-4.2535	-0.87693	1.6822	1.5246	-4.715	22.1265	715.2489	-38.9406	237.2439	27.2865	650.0059	-0.0592	0.0182	-0.0073	-0.0462	0.0165	0.9585
28.1588	3.0871	-0.1265	-1.5303	-0.081948	2.8759	-0.38408	26.777	704.9227	-38.8885	234.2067	25.1766	635.8451	-0.0592	0.0182	-0.0073	-0.0462	0.0165	0.9585
28.1771	5.0756	7.6494	-2.2331	-3.3771	4.47	7.8266	30.7987	698.9891	-39.091	232.6695	23.5371	626.0884	-0.0592	0.0182	-0.0073	-0.0462	0.0165	0.9585
28.1955	7.4153	20.1793	-2.846	-8.6574	6.1018	21.1187	34.0522	696.4288	-39.4489	232.2706	22.3233	619.8292	-0.0592	0.0182	-0.0073	-0.0462	0.0165	0.9585
28.2139	9.7847	38.2853	-3.1355	-16.2508	7.3809	40.3985	36.3747	695.3448	-39.854	232.3405	21.4944	615.4103	-0.0592	0.0182	-0.0073	-0.0462	0.0165	0.9585
28.2322	11.5484	62.1473	-2.7986	-26.2077	7.7126	65.8958	37.6045	693.2152	-40.1871	231.9944	21.0042	610.6436	-0.0592	0.0182	-0.0073	-0.0462	0.0165	0.9585
28.2506	11.9508	90.9474	-1.4912	-38.1539	6.4144	96.7875	37.6361	687.4017	-40.3153	230.3126	20.7793	603.2397	-0.0592	0.0182	-0.0073	-0.0462	0.0165	0.9585
28.2689	10.7527	123.003	1.0532	-51.3574	3.1058	131.3008	36.4877	675.8247	-40.1099	226.5743	20.7125	591.3801	-0.0592	0.0182	-0.0073	-0.0462	0.0165	0.9585
28.2873	8.2825	156.2065	4.7486	-64.9436	-1.9731	167.1264	34.3331	657.5134	-39.4932	220.4456	20.6879	574.1817	-0.0592	0.0182	-0.0073	-0.0462	0.0165	0.9585
28.3056	5.057	188.7485	9.0603	-78.2082	-8.0089	202.2321	31.474	632.8198	-38.4446	212.0533	20.5955	551.8761	-0.0592	0.0182	-0.0073	-0.0462	0.0165	0.9585
28.324	1.4829	220.0579	13.3348	-90.9708	-14.1139	235.9371	28.3019	603.2826	-36.9875	201.9382	20.3314	525.6925	-0.0592	0.0182	-0.0073	-0.0462	0.0165	0.9585
28.3424	-2.158	250.5136	17.0824	-103.4323	-19.6473	268.6042	25.2102	571.01	-35.1913	190.8415	19.8252	497.3418	-0.0592	0.0182	-0.0073	-0.0462	0.0165	0.9585
28.3607	-5.646	280.5651	20.0243	-115.8032	-24.2267	300.6898	22.4756	537.9196	-33.144	179.4415	19.0536	468.3883	-0.0592	0.0182	-0.0073	-0.0462	0.0165	0.9585
28.3791	-8.785	310.3123	22.1117	-128.1249	-27.7276	332.2851	20.2011	505.2467	-30.9475	168.181	18.0554	439.8332	-0.0592	0.0182	-0.0073	-0.0462	0.0165	0.9585
28.3974	-11.3829	339.4405	23.4726	-140.2448	-30.2129	363.0383	18.3412	473.4636	-28.7098	157.2375	16.9222	412.0431	-0.0592	0.0182	-0.0073	-0.0462	0.0165	0.9585
28.4158	-13.303	367.3845	24.3536	-151.8944	-31.8921	392.3321	16.7805	442.5062	-26.5242	146.602	15.7554	384.9447	-0.0592	0.0182	-0.0073	-0.0462	0.0165	0.9585
28.4341	-14.5175	393.7102	25.0073	-162.8569	-33.0267	419.6871	15.419	412.0687	-24.4487	136.1825	14.6247	358.2756	-0.0592	0.0182	-0.0073	-0.0462	0.0165	0.9585
28.4525	-15.0878	418.3696	25.617	-173.083	-33.841	445.0297	14.2229	381.8323	-22.5031	125.8818	13.5494	331.7704	-0.0592	0.0182	-0.0073	-0.0462	0.0165	0.9585
28.4709	-15.1036	441.6615	26.2901	-182.677	-34.4861	468.6581	13.2075	351.6	-20.6783	115.6437	12.5141	305.273	-0.0592	0.0182	-0.0073	-0.0462	0.0165	0.9585
28.4892	-14.6578	464.0316	27.0887	-191.8148	-35.0643	491.0293	12.3937	321.3862	-18.9515	105.4803	11.492	278.8151	-0.0592	0.0182	-0.0073	-0.0462	0.0165	0.9585
28.5076	-13.8599	485.9056	28.066	-200.6722	-35.6748	512.5867	11.7867	291.4428	-17.3111	95.4788	10.4695	252.6328	-0.0592	0.0182	-0.0073	-0.0462	0.0165	0.9585
28.5259	-12.8363	507.6215	29.257	-209.3989	-36.4066	533.7045	11.3599	262.223	-15.7769	85.7868	9.4707	227.1326	-0.0592	0.0182	-0.0073	-0.0462	0.0165	0.9585
28.5443	-11.7068	529.3684	30.6418	-218.0986	-37.2914	554.6136	11.0563	234.2877	-14.3976	76.5797	8.5518	202.8068	-0.0592	0.0182	-0.0073	-0.0462	0.0165	0.9585
28.5626	-10.562	551.1165	32.1277	-226.7934	-38.2753	575.316	10.8159	208.1725	-13.2325	68.0188	7.7754	180.1158	-0.0592	0.0182	-0.0073	-0.0462	0.0165	0.9585
28.581	-9.4708	572.6297	33.587	-235.4161	-39.2544	595.6024	10.5823	184.2366	-12.3206	60.2046	7.1882	159.3551	-0.0592	0.0182	-0.0073	-0.0462	0.0165	0.9585
28.5994	-8.5014	593.5271	34.9247	-243.8257	-40.1533	615.1188	10.2864	162.5407	-11.6567	53.138	6.8051	140.5579	-0.0592	0.0182	-0.0073	-0.0462	0.0165	0.9585
28.6177	-7.7161	613.4296	36.1229	-251.8632	-40.9722	633.5174	9.8486	142.8096	-11.188	46.7122	6.6073	123.4701	-0.0592	0.0182	-0.0073	-0.0462	0.0165	0.9585
28.6361	-7.1776	632.159	37.2355	-259.4366	-41.7864	650.6597	9.1795	124.5547	-10.8232	40.7559	6.5486	107.6649	-0.0592	0.0182	-0.0073	-0.0462	0.0165	0.9585
28.6544	-6.9573	649.8593	38.3562	-266.5757	-42.716	666.7352	8.1953	107.2676	-10.4449	35.0983	6.5595	92.7063	-0.0592	0.0182	-0.0073	-0.0462	0.0165	0.9585
28.6728	-7.1134	666.9504	39.5942	-273.4192	-43.8913	682.2041	6.8555	90.5752	-9.9257	29.6206	6.5487	78.2784	-0.0592	0.0182	-0.0073	-0.0462	0.0165	0.9585
28.6911	-7.6573	683.9686	41.0501	-280.1576	-45.4149	697.6237	5.1945	74.3501	-9.1646	24.2902	6.4218	64.2772	-0.0592	0.0182	-0.0073	-0.0462	0.0165	0.9585
28.7095	-8.5441	701.3784	42.792	-286.9605	-47.3364	713.4566	3.3383	58.7605	-8.1221	19.1716	6.1041	50.8516	-0.0592	0.0182	-0.0073	-0.0462	0.0165	0.9585
28.7279	-9.6874	719.4194	44.8559	-293.9172	-49.6572	729.9193	1.5067	44.2051	-6.8267	14.4032	5.5506	38.3417	-0.0592	0.0182	-0.0073	-0.0462	0.0165	0.9585
28.7462	-10.9818	738.1011	47.2213	-301.0361	-52.3128	746.9889	-0.037409	31.1977	-5.3626	10.1573	4.7535	27.1801	-0.0592	0.0182	-0.0073	-0.0462	0.0165	0.9585
28.7646	-12.3235	757.2731	49.7964	-308.2731	-55.1648	764.4775	-1.0612	20.2309	-3.8569	6.5934	3.7556	17.7794	-0.0592	0.0182	-0.0073	-0.0462	0.0165	0.9585
28.7829	-13.5982	776.6386	52.4348	-315.532	-58.0137	782.0407	-1.508	11.6665	-2.4636	3.8232	2.6763	10.4388	-0.0592	0.0182	-0.0073	-0.0462	0.0165	0.9585
28.8013	-14.6681	795.7751	54.9607	-322.668	-60.622	799.1918	-1.5629	5.5913	-1.3217	1.8671	1.6941	5.2357	-0.0592	0.0182	-0.0073	-0.0462	0.0165	0.9585
28.8196	-15.3704	814.1336	57.1918	-329.4855	-62.7404	815.3081	-1.4061	1.7269	-0.47508	0.62992	0.90124	1.9431	-0.0592	0.0182	-0.0073	-0.0462	0.0165	0.9585
28.838	-15.5422	830.9592	58.9757	-335.7025	-64.1538	829.5708	-1.1633	-0.39168	0.093202	-0.041694	0.32533	0.16563	-0.0592	0.0182	-0.0073	-0.0462	0.0165	0.9585
28.8564	-15.0672	845.1916	60.2181	-340.9059	-64.728	840.8926	-0.91258	-1.2659	0.4329	-0.31261	-0.051268	-0.53581	-0.0592	0.0182	-0.0073	-0.0462	0.0165	0.9585
28.8747	-13.9029	855.4902	60.8823	-344.5633	-64.4193	847.9522	-0.69895	-1.3527	0.60279	-0.33237	-0.26633	-0.56092	-0.0592	0.0182	-0.0073	-0.0462	0.0165	0.9585
28.8931	-12.0793	860.4522	60.9639	-346.1145	-63.2423	849.4017	-0.54505	-1.0285	0.66014	-0.22411	-0.36186	-0.24189	-0.0592	0.0182	-0.0073	-0.0462	0.0165	0.9585
28.9114	-9.6724	858.9631	60.4672	-345.1196	-61.238	844.1905	-0.45398	-0.58957	0.652	-0.084282	-0.37797	0.15148	-0.0592	0.0182	-0.0073	-0.0462	0.0165	0.9585
28.9298	-6.7589	850.5213	59.3996	-341.3923	-58.4544	831.8706	-0.41524	-0.25692	0.61451	0.014313	-0.35315	0.41046	-0.0592	0.0182	-0.0073	-0.0462	0.0165	0.9585
28.9481	-3.3933	835.4297	57.7987	-335.0742	-54.9622	812.765	-0.41322	-0.19314	0.57381	0.017341	-0.31948	0.37376	-0.0592	0.0182	-0.0073	-0.0462	0.0165	0.9585
28.9665	0.41521	814.8692	55.7537	-326.6559	-50.8618	788.0272	-0.42834	-0.51757	0.54549	-0.11578	-0.29798	-0.082747	-0.0592	0.0182	-0.0073	-0.0462	0.0165	0.9585
28.9849	4.7008	790.8034	53.413	-316.931	-46.2896	759.5509	-0.43658	-1.3003	0.53548	-0.40949	-0.30115	-1.0297	-0.0592	0.0182	-0.0073	-0.0462	0.0165	0.9585
29.0032	9.5023	765.7196	50.9626	-306.8892	-41.4141	729.7316	-0.4056	-2.5525	0.54044	-0.86737	-0.33645	-2.4766	-0.0592	0.0182	-0.0073	-0.0462	0.0165	0.9585
29.0216	14.8347	742.2606	48.6014	-297.569	-36.4196	701.1139	-0.2885	-4.2001	0.55329	-1.463	-0.4134	-4.3437	-0.0592	0.0182	-0.0073	-0.0462	0.0165	0.9585
29.0399	20.686	722.8248	46.5306	-289.8992	-31.4986	676.0228	-0.028743	-6.0313	0.56505	-2.1225	-0.53869	-6.4025	-0.0592	0.0182	-0.0073	-0.0462	0.0165	0.9585
29.0583	26.992	709.1731	44.9401	-284.5424	-26.8516	656.2124	0.43183	-7.6347	0.56371	-2.7018	-0.71644	-8.2028	-0.0592	0.0182	-0.0073	-0.0462	0.0165	0.9585
29.0766	33.6265	702.1117	43.9889	-281.7745	-22.6761	642.5736	1.1419	-8.3394	0.53036	-2.9638	-0.94036	-9.0119	-0.0592	0.0182	-0.0073	-0.0462	0.0165	0.9585
29.095	40.4002	701.3388	43.7684	-281.4331	-19.1349	634.9978	2.1232	-7.1631	0.4391	-2.5568	-1.1849	-7.7518	-0.0592	0.0182	-0.0073	-0.0462	0.0165	0.9585
29.1134	47.0462	705.458	44.2867	-282.9234	-16.3466	632.4132	3.3444	-2.7877	0.25845	-1.0079	-1.3976	-2.9683	-0.0592	0.0182	-0.0073	-0.0462	0.0165	0.9585
29.1317	53.1942	712.1616	45.4786	-285.2928	-14.4052	632.9493	4.6869	6.3895	-0.04341	2.2582	-1.4955	7.1103	-0.0592	0.0182	-0.0073	-0.0462	0.0165	0.9585
29.1501	58.3699	718.5022	47.186	-287.3499	-13.3671	634.1577	5.9032	22.0785	-0.48922	7.8558	-1.3607	24.3763	-0.0592	0.0182	-0.0073	-0.0462	0.0165	0.9585
29.1684	62.0336	721.1934	49.1269	-287.8007	-13.2129	633.2667	6.5697	45.7461	-1.0814	16.3141	-0.83363	50.4668	-0.0592	0.0182	-0.0073	-0.0462	0.0165	0.9585
29.1868	63.7056	716.9655	50.918	-285.3878	-13.8174	627.4724	6.0402	78.0708	-1.7988	27.8846	0.29297	86.1616	-0.0592	0.0182	-0.0073	-0.0462	0.0165	0.9585
29.2051	63.1413	703.0994	52.1473	-279.088	-14.9412	614.366	3.6813	118.5662	-2.6219	42.4026	2.2142	130.9582	-0.0592	0.0182	-0.0073	-0.0462	0.0165	0.9585
